<svg width="10" height="13" viewBox="0 0 10 13" fill="none" xmlns="http://www.w3.org/2000/svg">
<path fill-rule="evenodd" clip-rule="evenodd" d="M10 5.41192C10 6.65655 9.29439 8.00466 8.51852 8.8706L5.79525 12.1428C5.3979 12.6202 4.66599 12.6237 4.26412 12.1501L1.48148 8.8706C0.569978 7.98029 0 6.77482 0 5.41192C0 2.69746 2.23858 0.496948 5 0.496948C7.76142 0.496948 10 2.69746 10 5.41192ZM5 8.50671C6.65685 8.50671 8 7.16357 8 5.50671C8 3.84986 6.65685 2.50671 5 2.50671C3.34315 2.50671 2 3.84986 2 5.50671C2 7.16357 3.34315 8.50671 5 8.50671Z" fill="white"/>
</svg>
