<svg width="148" height="104" viewBox="0 0 148 104" fill="none" xmlns="http://www.w3.org/2000/svg">
<path fill-rule="evenodd" clip-rule="evenodd" d="M140.465 64.9084C136.684 60.163 129.786 56.0838 117.928 56.0838H92.4034L92.5825 55.7448H53.0907C50.2953 58.6711 48.4642 62.4477 48.0753 66.6192C38.6786 67.0988 31.2146 74.4944 31.2146 83.5473C31.2146 91.4166 36.8546 98.0336 44.5013 99.9443V100.5H49.0468H122.124C135.641 100.5 144.501 90.7039 144.501 77.7833C144.501 73.0266 143.016 68.6014 140.465 64.9084Z" fill="#C1C1C1"/>
<g filter="url(#filter0_d_13_27)">
<path fill-rule="evenodd" clip-rule="evenodd" d="M27.7181 100.5H105.34C118.858 100.5 127.718 90.7039 127.718 77.7833C127.718 73.0266 126.233 68.6015 123.682 64.9085C119.901 60.1631 113.003 56.0838 101.145 56.0838H75.6202L75.7993 55.7448H36.3075C33.1434 59.0571 31.2146 63.4589 31.2146 68.2898C31.2146 68.403 31.2157 68.5161 31.2178 68.6288H27.7181V100.5Z" fill="#E4E4E4"/>
</g>
<path fill-rule="evenodd" clip-rule="evenodd" d="M104.447 3.9965V19.3747H97.454L97.454 3.99651C97.454 2.06544 99.0194 0.5 100.95 0.5C102.882 0.5 104.447 2.06544 104.447 3.9965ZM122.533 47.6846C122.533 59.8452 112.714 69.7033 100.602 69.7033C88.4903 69.7033 78.6715 59.8452 78.6715 47.6846C78.6715 35.5239 88.4903 25.6658 100.602 25.6658C112.714 25.6658 122.533 35.5239 122.533 47.6846ZM77.9838 29.93L67.1532 19.056C65.7904 17.6878 65.7904 15.4695 67.1532 14.1013C68.5159 12.7331 70.7253 12.7331 72.0881 14.1013L82.9187 24.9754L77.9838 29.93ZM134.439 19.056L123.608 29.93L118.673 24.9754L129.504 14.1013C130.867 12.7331 133.076 12.7331 134.439 14.1013C135.802 15.4695 135.802 17.6878 134.439 19.056ZM129.187 51.5306H144.503C146.435 51.5306 148 49.9651 148 48.0341C148 46.103 146.435 44.5376 144.503 44.5376H129.187V51.5306ZM57.0887 51.5306H72.4055V44.5376H57.0887C55.1577 44.5376 53.5922 46.103 53.5922 48.0341C53.5922 49.9651 55.1577 51.5306 57.0887 51.5306ZM118.673 70.7827L129.504 81.6567C130.867 83.0249 133.076 83.0249 134.439 81.6567C135.802 80.2885 135.802 78.0702 134.439 76.702L123.608 65.828L118.673 70.7827ZM97.1451 91.412L97.1451 76.0338H104.138V91.412C104.138 93.3431 102.573 94.9085 100.642 94.9085C98.7105 94.9085 97.1451 93.3431 97.1451 91.412ZM77.9838 65.4785L67.1532 76.3525C65.7904 77.7207 65.7904 79.939 67.1532 81.3072C68.5159 82.6754 70.7253 82.6754 72.0881 81.3072L82.9187 70.4331L77.9838 65.4785Z" fill="url(#paint0_linear_13_27)"/>
<path d="M89.9559 52.5979C89.9559 65.536 79.4675 76.0245 66.5293 76.0245C53.5912 76.0245 43.1028 65.536 43.1028 52.5979C43.1028 39.6598 53.5912 29.1713 66.5293 29.1713C79.4675 29.1713 89.9559 39.6598 89.9559 52.5979Z" fill="white"/>
<path d="M113.732 77.0734C113.732 90.3978 104.872 100.5 91.3545 100.5C77.8371 100.5 64.7811 90.3978 64.7811 77.0734C64.7811 63.7491 75.7392 52.9475 89.2566 52.9475C102.774 52.9475 113.732 63.7491 113.732 77.0734Z" fill="white"/>
<path d="M56.3895 67.2832C56.3895 77.9041 47.623 86.514 36.8091 86.514C25.9951 86.514 17.2286 77.9041 17.2286 67.2832C17.2286 56.6624 25.9951 48.0524 36.8091 48.0524C47.623 48.0524 56.3895 56.6624 56.3895 67.2832Z" fill="white"/>
<path d="M36.1098 83.0175C36.1098 92.6728 28.126 100.5 18.2776 100.5C8.42917 100.5 0.445435 92.6728 0.445435 83.0175C0.445435 73.3622 8.42917 65.535 18.2776 65.535C28.126 65.535 36.1098 73.3622 36.1098 83.0175Z" fill="white"/>
<path d="M13.7321 67.6329H91.3545V100.5H18.2776L13.7321 67.6329Z" fill="white"/>
<defs>
<filter id="filter0_d_13_27" x="27.7181" y="55.7448" width="102.797" height="47.5525" filterUnits="userSpaceOnUse" color-interpolation-filters="sRGB">
<feFlood flood-opacity="0" result="BackgroundImageFix"/>
<feColorMatrix in="SourceAlpha" type="matrix" values="0 0 0 0 0 0 0 0 0 0 0 0 0 0 0 0 0 0 127 0" result="hardAlpha"/>
<feOffset dx="2.7972" dy="2.7972"/>
<feComposite in2="hardAlpha" operator="out"/>
<feColorMatrix type="matrix" values="0 0 0 0 0 0 0 0 0 0 0 0 0 0 0 0 0 0 0.2 0"/>
<feBlend mode="normal" in2="BackgroundImageFix" result="effect1_dropShadow_13_27"/>
<feBlend mode="normal" in="SourceGraphic" in2="effect1_dropShadow_13_27" result="shape"/>
</filter>
<linearGradient id="paint0_linear_13_27" x1="53.5922" y1="5.74273" x2="138.564" y2="101.897" gradientUnits="userSpaceOnUse">
<stop stop-color="#F0D047"/>
<stop offset="1" stop-color="#FFA800"/>
</linearGradient>
</defs>
</svg>
